<?xml version="1.0" encoding="UTF-8" standalone="no"?>
<svg
   xmlns:dc="http://purl.org/dc/elements/1.1/"
   xmlns:cc="http://creativecommons.org/ns#"
   xmlns:rdf="http://www.w3.org/1999/02/22-rdf-syntax-ns#"
   xmlns:svg="http://www.w3.org/2000/svg"
   xmlns="http://www.w3.org/2000/svg"
   xmlns:sodipodi="http://sodipodi.sourceforge.net/DTD/sodipodi-0.dtd"
   xmlns:inkscape="http://www.inkscape.org/namespaces/inkscape"
   viewBox="0 0 24 24"
   class="r-1re7ezh r-4qtqp9 r-yyyyoo r-1q142lx r-1xvli5t r-zso239 r-dnmrzs r-bnwqim r-1plcrui r-lrvibr"
   version="1.1"
   id="svg6"
   sodipodi:docname="follow_request.svg"
   inkscape:version="0.92.5 (2060ec1f9f, 2020-04-08)">
  <metadata
     id="metadata12">
    <rdf:RDF>
      <cc:Work
         rdf:about="">
        <dc:format>image/svg+xml</dc:format>
        <dc:type
           rdf:resource="http://purl.org/dc/dcmitype/StillImage" />
      </cc:Work>
    </rdf:RDF>
  </metadata>
  <defs
     id="defs10" />
  <sodipodi:namedview
     pagecolor="#ffffff"
     bordercolor="#666666"
     borderopacity="1"
     objecttolerance="10"
     gridtolerance="10"
     guidetolerance="10"
     inkscape:pageopacity="0"
     inkscape:pageshadow="2"
     inkscape:window-width="1920"
     inkscape:window-height="1051"
     id="namedview8"
     showgrid="false"
     inkscape:zoom="19.666667"
     inkscape:cx="8.8840415"
     inkscape:cy="8.0040685"
     inkscape:window-x="0"
     inkscape:window-y="-37"
     inkscape:window-maximized="1"
     inkscape:current-layer="svg6" />
  <path
     style="opacity:1;fill:#ffffff;fill-opacity:1;stroke:none;stroke-width:0.02679705;stroke-linecap:round;stroke-linejoin:round;stroke-miterlimit:4;stroke-dasharray:none;stroke-opacity:1;paint-order:stroke fill markers"
     id="path816"
     sodipodi:type="arc"
     sodipodi:cx="11.949139"
     sodipodi:cy="11.94918"
     sodipodi:rx="11.847484"
     sodipodi:ry="11.847484"
     sodipodi:start="0"
     sodipodi:end="6.2410531"
     sodipodi:open="true"
     d="M 23.796622,11.94918 A 11.847484,11.847484 0 0 1 12.073926,23.796006 11.847484,11.847484 0 0 1 0.10428375,12.198742 11.847484,11.847484 0 0 1 11.57483,0.10761042 11.847484,11.847484 0 0 1 23.786108,11.450167" />
  <g
     id="g4"
     transform="matrix(0.75880809,0,0,0.75880809,3.0666908,2.8539071)"
     style="fill:#1da1f2;fill-opacity:1;stroke:#1da1f2;stroke-opacity:1">
    <path
       d="m 8.417,11.816 c 1.355,0 2.872,-0.15 3.84,-1.256 0.813,-0.93 1.077,-2.367 0.806,-4.392 -0.38,-2.826 -2.116,-4.513 -4.645,-4.513 -2.53,0 -4.267,1.687 -4.646,4.513 -0.273,2.025 -0.01,3.462 0.805,4.393 0.968,1.108 2.485,1.257 3.84,1.257 z M 5.257,6.368 c 0.16,-1.2 0.786,-3.212 3.16,-3.212 2.373,0 2.998,2.013 3.16,3.212 0.207,1.55 0.056,2.627 -0.45,3.205 -0.455,0.52 -1.266,0.743 -2.71,0.743 -1.444,0 -2.256,-0.223 -2.71,-0.743 C 5.2,8.995 5.049,7.917 5.257,6.368 Z m 11.44,12.867 c -0.88,-3.525 -4.283,-5.988 -8.28,-5.988 -3.998,0 -7.403,2.463 -8.28,5.988 -0.172,0.693 -0.03,1.4 0.395,1.94 0.408,0.522 1.04,0.822 1.733,0.822 H 14.57 c 0.69,0 1.323,-0.3 1.73,-0.82 0.425,-0.54 0.568,-1.247 0.396,-1.942 z m -1.577,1.018 c -0.126,0.16 -0.316,0.245 -0.55,0.245 H 2.264 c -0.235,0 -0.426,-0.085 -0.552,-0.246 -0.137,-0.174 -0.18,-0.412 -0.12,-0.654 0.71,-2.855 3.517,-4.85 6.824,-4.85 3.307,0 6.113,1.994 6.824,4.85 0.06,0.24 0.017,0.48 -0.12,0.655 z M 23.24,3.47 h -5.624 l 1.64,-1.642 c 0.315,-0.316 0.315,-0.827 0,-1.143 -0.316,-0.315 -0.826,-0.316 -1.143,0 l -2.96,2.96 c -0.16,0.16 -0.238,0.366 -0.238,0.572 0,0.207 0.08,0.414 0.237,0.57 l 2.96,2.962 c 0.16,0.156 0.365,0.234 0.572,0.234 0.207,0 0.413,-0.08 0.57,-0.236 0.316,-0.316 0.316,-0.828 0,-1.144 l -1.64,-1.64 h 5.623 c 0.414,0 0.75,-0.336 0.75,-0.75 0,-0.414 -0.334,-0.747 -0.748,-0.747 z"
       id="path2"
       inkscape:connector-curvature="0"
       style="fill:#1da1f2;fill-opacity:1;stroke:#1da1f2;stroke-opacity:1" />
  </g>
</svg>
