<?xml version="1.0" encoding="UTF-8" standalone="no"?>
<svg
   xmlns:dc="http://purl.org/dc/elements/1.1/"
   xmlns:cc="http://creativecommons.org/ns#"
   xmlns:rdf="http://www.w3.org/1999/02/22-rdf-syntax-ns#"
   xmlns:svg="http://www.w3.org/2000/svg"
   xmlns="http://www.w3.org/2000/svg"
   xmlns:sodipodi="http://sodipodi.sourceforge.net/DTD/sodipodi-0.dtd"
   xmlns:inkscape="http://www.inkscape.org/namespaces/inkscape"
   viewBox="0 0 20 20"
   version="1.1"
   id="svg6"
   sodipodi:docname="message.svg"
   inkscape:version="0.92.5 (2060ec1f9f, 2020-04-08)">
  <metadata
     id="metadata12">
    <rdf:RDF>
      <cc:Work
         rdf:about="">
        <dc:format>image/svg+xml</dc:format>
        <dc:type
           rdf:resource="http://purl.org/dc/dcmitype/StillImage" />
      </cc:Work>
    </rdf:RDF>
  </metadata>
  <defs
     id="defs10" />
  <sodipodi:namedview
     pagecolor="#ffffff"
     bordercolor="#666666"
     borderopacity="1"
     objecttolerance="10"
     gridtolerance="10"
     guidetolerance="10"
     inkscape:pageopacity="0"
     inkscape:pageshadow="2"
     inkscape:window-width="1920"
     inkscape:window-height="1051"
     id="namedview8"
     showgrid="false"
     inkscape:zoom="11.8"
     inkscape:cx="-7.6694916"
     inkscape:cy="9.6610169"
     inkscape:window-x="0"
     inkscape:window-y="-37"
     inkscape:window-maximized="1"
     inkscape:current-layer="svg6" />
  <path
     id="path5081"
     sodipodi:type="arc"
     sodipodi:cx="10.084745"
     sodipodi:cy="10.042373"
     sodipodi:rx="10"
     sodipodi:ry="9.9576273"
     sodipodi:start="0"
     sodipodi:end="6.2410531"
     sodipodi:open="true"
     d="M 20.084745,10.042373 A 10,9.9576273 0 0 1 10.190074,19.999448 10,9.9576273 0 0 1 0.08696423,10.252126 10,9.9576273 0 0 1 9.7688064,0.08971637 10,9.9576273 0 0 1 20.075871,9.62296"
     style="fill:#fffbff;fill-opacity:1" />
  <path
     d="M7.79,9.16,2.48,3.85A2.49,2.49,0,0,1,3.75,3.5h12.5a2.49,2.49,0,0,1,1.27.35L12.21,9.16A3.13,3.13,0,0,1,7.79,9.16Z"
     id="path2"
     style="stroke:none;stroke-opacity:1;fill:#2b90d9;fill-opacity:1;stroke-width:1.5;stroke-miterlimit:4;stroke-dasharray:none;stroke-linejoin:round" />
  <path
     d="M13.09,10.31,18.4,5a2.47,2.47,0,0,1,.35,1.27v7.5a2.5,2.5,0,0,1-2.5,2.5H3.75a2.5,2.5,0,0,1-2.5-2.5V6.27A2.47,2.47,0,0,1,1.6,5l5.31,5.31a4.37,4.37,0,0,0,6.18,0Z"
     stroke="#fff"
     stroke-linecap="round"
     stroke-linejoin="round"
     stroke-width="2"
     id="path4"
     style="fill:#2b90d9;fill-opacity:1;stroke:none;stroke-opacity:1;stroke-width:1.5;stroke-miterlimit:4;stroke-dasharray:none" />
</svg>
