<?xml version="1.0" encoding="UTF-8" standalone="no"?>
<!-- Created with Inkscape (http://www.inkscape.org/) -->

<svg
   xmlns:dc="http://purl.org/dc/elements/1.1/"
   xmlns:cc="http://creativecommons.org/ns#"
   xmlns:rdf="http://www.w3.org/1999/02/22-rdf-syntax-ns#"
   xmlns:svg="http://www.w3.org/2000/svg"
   xmlns="http://www.w3.org/2000/svg"
   xmlns:sodipodi="http://sodipodi.sourceforge.net/DTD/sodipodi-0.dtd"
   xmlns:inkscape="http://www.inkscape.org/namespaces/inkscape"
   width="512"
   height="512"
   id="svg2"
   version="1.1"
   inkscape:version="0.92.5 (2060ec1f9f, 2020-04-08)"
   sodipodi:docname="reply.svg"
   inkscape:export-filename="C:\Documents and Settings\bstawarz\Bureau\Projects\Projet Site\v1.0\arrow.png"
   inkscape:export-xdpi="90"
   inkscape:export-ydpi="90">
  <defs
     id="defs4" />
  <sodipodi:namedview
     id="base"
     pagecolor="#ffffff"
     bordercolor="#666666"
     borderopacity="1.0"
     inkscape:pageopacity="0.0"
     inkscape:pageshadow="2"
     inkscape:zoom="0.9899495"
     inkscape:cx="173.42514"
     inkscape:cy="206.15729"
     inkscape:document-units="px"
     inkscape:current-layer="layer1"
     showgrid="false"
     inkscape:window-width="1920"
     inkscape:window-height="1051"
     inkscape:window-x="0"
     inkscape:window-y="-37"
     inkscape:window-maximized="1" />
  <metadata
     id="metadata7">
    <rdf:RDF>
      <cc:Work
         rdf:about="">
        <dc:format>image/svg+xml</dc:format>
        <dc:type
           rdf:resource="http://purl.org/dc/dcmitype/StillImage" />
        <dc:title></dc:title>
      </cc:Work>
    </rdf:RDF>
  </metadata>
  <g
     inkscape:label="Calque 1"
     inkscape:groupmode="layer"
     id="layer1"
     transform="translate(0,-540.3622)">
    <path
       style="opacity:1;fill:#ffffff;fill-opacity:1;stroke:#ffffc1;stroke-width:36.64300156;stroke-linecap:round;stroke-linejoin:round;stroke-miterlimit:4;stroke-dasharray:none;stroke-opacity:0;paint-order:stroke fill markers"
       id="path816"
       sodipodi:type="arc"
       sodipodi:cx="257.08383"
       sodipodi:cy="795.78345"
       sodipodi:rx="246.9823"
       sodipodi:ry="247.48737"
       sodipodi:start="0"
       sodipodi:end="6.2410531"
       sodipodi:open="true"
       d="M 504.06613,795.78345 A 246.9823,247.48737 0 0 1 259.68526,1043.2571 246.9823,247.48737 0 0 1 10.156333,800.99666 246.9823,247.48737 0 0 1 249.2807,548.41963 246.9823,247.48737 0 0 1 503.84695,785.35934" />
    <path
       d="M 49.397745,731.95877 190.70143,609.9386 c 12.3686,-10.68183 31.86244,-2.01032 31.86244,14.58285 v 64.27004 c 128.95997,1.47644 231.21896,27.32237 231.21896,149.53604 0,49.32751 -31.77736,98.19494 -66.90337,123.74384 -10.96122,7.9731 -26.58294,-2.0336 -22.54143,-14.9577 C 400.74217,830.69168 347.07127,799.78381 222.56387,797.99186 v 70.582 c 0,16.61886 -19.5091,25.25183 -31.86244,14.58284 L 49.397745,761.12448 c -8.88828,-7.67678 -8.90032,-21.47847 0,-29.16571 z"
       id="path5"
       inkscape:connector-curvature="0"
       style="fill:#2b90d9;fill-opacity:1;stroke:none;stroke-width:96.56899261;stroke-linejoin:round;stroke-miterlimit:4;stroke-dasharray:none;stroke-opacity:1;paint-order:stroke fill markers" />
  </g>
</svg>
