<?xml version="1.0" encoding="UTF-8" standalone="no"?>
<svg
   xmlns:dc="http://purl.org/dc/elements/1.1/"
   xmlns:cc="http://creativecommons.org/ns#"
   xmlns:rdf="http://www.w3.org/1999/02/22-rdf-syntax-ns#"
   xmlns:svg="http://www.w3.org/2000/svg"
   xmlns="http://www.w3.org/2000/svg"
   xmlns:sodipodi="http://sodipodi.sourceforge.net/DTD/sodipodi-0.dtd"
   xmlns:inkscape="http://www.inkscape.org/namespaces/inkscape"
   version="1.1"
   viewbox="0 0 16 16"
   width="16"
   height="16"
   id="svg4"
   sodipodi:docname="sound.svg"
   inkscape:version="0.92.5 (2060ec1f9f, 2020-04-08)">
  <metadata
     id="metadata10">
    <rdf:RDF>
      <cc:Work
         rdf:about="">
        <dc:format>image/svg+xml</dc:format>
        <dc:type
           rdf:resource="http://purl.org/dc/dcmitype/StillImage" />
      </cc:Work>
    </rdf:RDF>
  </metadata>
  <defs
     id="defs8" />
  <sodipodi:namedview
     pagecolor="#ffffff"
     bordercolor="#666666"
     borderopacity="1"
     objecttolerance="10"
     gridtolerance="10"
     guidetolerance="10"
     inkscape:pageopacity="0"
     inkscape:pageshadow="2"
     inkscape:window-width="1920"
     inkscape:window-height="1051"
     id="namedview6"
     showgrid="false"
     inkscape:zoom="14.75"
     inkscape:cx="8"
     inkscape:cy="8"
     inkscape:window-x="0"
     inkscape:window-y="-37"
     inkscape:window-maximized="1"
     inkscape:current-layer="svg4" />
  <ellipse
     style="fill:#ffffff;fill-opacity:1"
     id="path817"
     cx="8.0677967"
     cy="8.0338984"
     rx="8"
     ry="7.9661016" />
  <path
     d="M1 6v4h3l3 3h1V3H7L4 6zM13.25 3l-.78.625C13.433 4.825 14 6.34 14 8s-.566 3.175-1.53 4.375l.78.625C14.348 11.63 15 9.892 15 8s-.652-3.63-1.75-5zm-1.563 1.25l-.812.656C11.563 5.763 12 6.816 12 8s-.437 2.237-1.125 3.094l.813.656C12.51 10.723 13 9.42 13 8s-.49-2.723-1.313-3.75zM10.126 5.5l-.78.625C9.754 6.638 10 7.29 10 8s-.245 1.36-.656 1.875l.78.625a4.008 4.008 0 0 0 0-5z"
     id="path2"
     style="fill:#2b90d9;fill-opacity:1" />
</svg>
